<svg xmlns="http://www.w3.org/2000/svg"
shape-rendering="geometricPrecision"
width="4000" height="4000" viewBox="0 0 757 757">
  <metadata>null</metadata>

<path d="
M 33.97 349.631
C 34.637 346.505 34.331 343.446 35.408 340.34
C 38.475 331.495 46.921 322.424 56.8 321.732
C 56.524 318.89 56.722 315.943 59.54 314.426
C 61.716 313.254 65.117 313.778 67.504 313.786
C 72.505 313.805 77.505 313.793 82.505 313.813
C 85.03 313.823 88.1 313.52 90.411 314.742
C 93.35 316.295 93.37 318.651 92.915 321.613
C 93.882 322.201 96.816 321.708 98.002 321.709
C 102.668 321.714 107.334 321.724 111.999 321.714
C 122.482 321.691 132.965 321.686 143.449 321.639
C 148.882 321.615 154.588 321.076 159.961 322.039
C 165.671 323.063 170.762 325.86 174.901 329.884
C 186.606 341.26 182.756 359.988 182.915 374.657
C 183.031 385.38 182.851 396.106 182.929 406.83
C 182.996 416.117 183.195 425.748 176.371 433.009
C 172.069 437.585 166.641 441.261 160.399 442.523
C 157.623 443.085 154.65 442.807 151.836 442.782
C 147.392 442.743 142.947 442.776 138.503 442.778
C 121.003 442.787 103.504 442.763 86.004 442.763
C 77.111 442.763 68.01 443.356 59.138 442.757
C 50.129 442.148 42.466 436.301 37.739 428.911
C 32.657 420.969 33.873 410.977 33.879 402.008
C 33.888 390.343 33.884 378.678 33.905 367.012
C 33.915 361.257 33.545 355.37 33.97 349.631 Z
M 45.939 346.596
C 45.109 353.401 45.778 360.65 45.761 367.505
C 45.727 380.506 45.623 393.508 45.652 406.509
C 45.661 410.71 45.101 415.55 46.191 419.639
C 47.187 423.374 50.35 427.032 53.637 428.993
C 57.49 431.292 61.699 430.973 66.019 430.951
C 71.682 430.923 77.346 430.97 83.009 430.972
C 100.009 430.976 117.008 430.973 134.007 430.932
C 140.804 430.915 147.721 431.363 154.502 431.07
C 156.494 430.984 158.649 430.945 160.546 430.282
C 166.052 428.357 169.816 423.368 170.678 417.688
C 171.716 410.844 170.913 403.417 170.899 396.509
C 170.873 383.336 170.872 370.162 170.88 356.988
C 170.885 348.669 171.286 340.224 163.019 335.542
C 159.108 333.327 154.6 333.403 150.227 333.413
C 145.065 333.424 139.904 333.391 134.742 333.393
C 112.554 333.4 90.348 333.697 68.151 333.589
C 64.534 333.571 60.346 332.999 56.828 333.964
C 51.334 335.47 46.624 340.984 45.939 346.596 Z"
opacity="1" fill="rgb(237,131,35)" fill-rule="evenodd" />
<path d="
M 77.474 381.118
C 77.961 376.883 79.396 372.712 81.634 369.081
C 91.285 353.426 112.671 349.528 127.442 360.41
C 130.33 362.538 132.786 365.41 134.726 368.402
C 136.726 371.488 138.175 374.853 138.865 378.475
C 139.473 381.667 139.925 385.148 139.516 388.394
C 138.944 392.925 137.62 397.137 135.233 401.042
C 133.066 404.588 130.642 407.655 127.15 409.982
C 112.441 419.784 91.356 416.974 81.921 401.149
C 80.31 398.446 78.965 395.634 78.22 392.564
C 77.313 388.829 77.035 384.934 77.474 381.118 Z
M 89.438 381.088
C 88.879 384.179 89.051 387.514 89.841 390.555
C 90.418 392.781 91.474 394.903 92.898 396.708
C 101.275 407.33 118.198 406.906 125.199 394.995
C 126.304 393.115 127.183 391.063 127.581 388.909
C 128.091 386.147 127.963 383.214 127.297 380.494
C 123.374 364.48 101.308 361.388 92.172 374.572
C 90.837 376.498 89.855 378.78 89.438 381.088 Z"
opacity="1" fill="rgb(239,130,38)" fill-rule="evenodd" />
<path d="
M 140.385 353.091
C 140.593 351.978 141.087 350.831 141.67 349.866
C 146.745 341.461 160.078 347.715 158.233 356.847
C 156.347 366.181 142.423 365.905 140.488 356.731
C 140.237 355.542 140.162 354.292 140.385 353.091 Z"
opacity="1" fill="rgb(228,112,48)" fill-rule="evenodd" />
<path d="
M 210.743 343.688
C 219.324 343.757 227.917 343.643 236.501 343.635
C 242.557 343.629 248.359 343.272 253.975 345.946
C 266.165 351.75 267.57 370.717 257.245 378.938
C 257.322 379.623 258.187 379.73 258.752 380.096
C 259.994 380.904 261.162 381.728 262.176 382.822
C 265.109 385.986 266.703 390.143 267.133 394.4
C 267.381 396.859 267.286 399.345 266.859 401.78
C 265.411 410.043 258.647 415.482 250.758 417.254
C 246.636 418.18 242.199 417.758 238.005 417.75
C 229.048 417.732 219.889 417.213 210.955 417.856
C 210.267 416.581 210.82 413.477 210.824 411.999
C 210.838 407.166 210.82 402.332 210.82 397.499
C 210.82 379.585 211.278 361.594 210.743 343.688 Z
M 224.078 356.118
C 224.032 362.184 223.955 368.278 224.172 374.34
C 225.931 374.905 228.641 374.405 230.507 374.413
C 233.675 374.427 236.843 374.419 240.011 374.453
C 242.69 374.481 245.369 374.624 247.706 373.095
C 252.813 369.755 253.1 360.849 247.985 357.36
C 245.603 355.735 242.728 355.851 239.962 355.847
C 234.682 355.84 229.351 355.883 224.078 356.118 Z
M 224.23 386.268
C 223.771 392.574 223.743 399.452 224.27 405.756
C 229.762 405.841 235.277 405.758 240.774 405.778
C 243.407 405.788 246.769 406.281 249.231 405.147
C 256.777 401.67 256.341 389.941 248.752 386.838
C 246.256 385.817 242.997 386.183 240.353 386.181
C 234.981 386.178 229.599 386.318 224.23 386.268 Z"
opacity="1" fill="rgb(254,252,254)" fill-rule="evenodd" />
<path d="
M 275.899 364.203
C 279.967 364.163 284.252 364.563 288.291 364.129
C 288.077 366.638 288.244 369.444 288.414 371.957
C 289.572 371.157 290.159 369.139 291.244 368.103
C 295.025 364.489 300.702 362.606 305.895 363.502
C 305.675 366.257 305.883 369.219 305.966 371.992
C 305.995 372.983 306.415 374.784 305.937 375.662
C 302.61 375.741 298.898 375.696 295.832 377.182
C 289.627 380.19 288.412 386.522 288.372 392.738
C 288.319 401.09 288.829 409.515 288.387 417.857
C 284.32 417.952 279.689 418.363 275.668 417.788
C 276.072 412.752 275.737 407.555 275.754 402.499
C 275.796 389.744 275.48 376.949 275.899 364.203 Z"
opacity="1" fill="rgb(252,251,253)" fill-rule="evenodd" />
<path d="
M 309.454 388.617
C 309.787 384.85 310.863 381.119 312.629 377.778
C 314.304 374.611 316.506 371.875 319.23 369.55
C 328.697 361.468 343.906 361.175 353.831 368.689
C 361.649 374.607 365.702 384.071 364.819 393.792
C 364.44 397.965 363.284 402.191 361.199 405.845
C 352.662 420.803 330.57 423.051 318.079 411.862
C 311.722 406.167 308.712 396.986 309.454 388.617 Z
M 321.96 388.092
C 320.897 394.465 322.94 401.136 328.247 405.008
C 337.52 411.774 350.652 405.889 352.59 394.983
C 353.632 389.114 352.053 382.521 347.411 378.561
C 341.932 373.888 332.958 373.536 327.346 378.119
C 324.367 380.553 322.583 384.357 321.96 388.092 Z"
opacity="1" fill="rgb(254,253,254)" fill-rule="evenodd" />
<path d="
M 371.451 400.611
C 371.941 398.218 372.295 396.111 373.432 393.906
C 377.554 385.909 386.073 384.805 394.231 384.967
C 397.15 385.026 400.066 385.221 402.985 385.307
C 403.631 385.327 405.666 385.726 406.21 385.325
C 406.692 384.97 406.114 382.905 406.021 382.466
C 405.323 379.178 403.021 376.732 399.949 375.427
C 392.774 372.379 384.758 376.337 377.811 378.025
C 377.447 374.874 377.367 371.656 376.787 368.539
C 377.294 367.775 378.456 367.412 379.264 367.007
C 381.353 365.958 383.514 365.184 385.767 364.567
C 395.839 361.809 408.982 362.957 415.219 372.355
C 419.261 378.445 418.464 386.204 418.387 393.167
C 418.298 401.225 419.204 409.694 418.351 417.7
C 415.408 417.897 412.444 417.747 409.498 417.775
C 408.722 417.783 406.871 418.136 406.299 417.67
C 406.292 415.687 406.7 413.566 406.384 411.605
C 404.516 415.186 399.731 417.37 396.036 418.301
C 384.578 421.188 370.054 413.962 371.451 400.611 Z
M 383.904 399.574
C 382.649 405.863 388.282 408.859 393.739 408.503
C 400.774 408.044 407.017 402.657 406.111 395.227
C 404.445 394.831 402.723 394.767 401.019 394.652
C 395.74 394.295 385.778 392.73 383.904 399.574 Z"
opacity="1" fill="rgb(253,252,254)" fill-rule="evenodd" />
<path d="
M 425.977 387.619
C 427.418 381.052 428.973 375.418 433.892 370.446
C 443.117 361.122 460.483 360.268 469.199 370.831
C 469.295 370.831 469.173 368.282 469.168 368.008
C 469.135 366.005 469.116 364.001 469.124 361.997
C 469.148 355.768 468.884 349.461 469.166 343.245
C 473.221 343.27 477.336 343.211 481.381 343.51
C 481.085 345.404 481.377 347.57 481.372 349.501
C 481.361 354 481.391 358.5 481.39 362.999
C 481.385 375.165 481.411 387.332 481.413 399.498
C 481.413 405.534 481.84 411.764 481.364 417.779
C 477.347 417.95 473.04 417.248 469.074 417.845
C 469.055 415.608 469.318 413.313 469.025 411.092
C 459.981 421.557 443.617 421.293 433.927 411.627
C 427.802 405.516 424.921 396.151 425.977 387.619 Z
M 437.961 389.61
C 437.705 393.06 438.172 396.798 439.842 399.868
C 444.358 408.171 456.468 410.293 463.686 404.187
C 467.173 401.238 468.743 396.861 469.045 392.43
C 469.367 387.715 468.014 382.745 464.567 379.368
C 457.403 372.352 444.802 373.398 439.923 382.524
C 438.781 384.661 438.139 387.201 437.961 389.61 Z"
opacity="1" fill="rgb(254,252,254)" fill-rule="evenodd" />
<path d="
M 488.834 343.938
C 489.648 343.079 491.601 343.361 492.764 343.376
C 496.346 343.42 499.926 343.472 503.509 343.469
C 517.55 343.455 531.725 344.034 545.74 343.563
C 545.987 347.527 546.141 351.74 545.864 355.705
C 538.509 355.802 531.144 355.674 523.789 355.736
C 523.268 376.34 523.831 396.997 523.74 417.607
C 519.455 417.964 514.891 417.081 510.664 417.782
C 510.864 405.53 510.653 393.256 510.68 381
C 510.699 372.606 511.143 364.034 510.571 355.662
C 506.68 356.181 502.435 355.7 498.506 355.689
C 495.387 355.68 491.863 356.135 488.792 355.637
C 488.925 351.741 488.656 347.837 488.834 343.938 Z"
opacity="1" fill="rgb(253,252,254)" fill-rule="evenodd" />
<path d="
M 549.738 364.277
C 553.771 364.144 558.037 363.897 562.057 364.311
C 562.39 367.141 562.118 370.155 562.108 373.007
C 562.088 379.004 561.958 385 561.956 390.997
C 561.954 395.043 561.36 399.91 563.523 403.531
C 568.047 411.106 580.392 407.794 583.597 400.737
C 585.091 397.447 584.275 392.537 584.275 389
C 584.276 380.714 584.622 372.344 584.246 364.067
C 588.456 364.184 592.763 363.735 596.958 364.208
C 596.885 375.967 596.975 387.733 596.981 399.496
C 596.984 405.555 597.253 411.721 596.859 417.767
C 592.767 417.981 588.635 417.983 584.547 417.714
C 584.502 415.886 584.758 414.006 584.581 412.185
C 575.283 422.14 557.341 421.078 551.554 407.89
C 549.243 402.622 549.739 396.615 549.735 391.003
C 549.729 382.096 549.649 373.182 549.738 364.277 Z"
opacity="1" fill="rgb(253,252,254)" fill-rule="evenodd" />
<path d="
M 608.44 344.632
C 608.456 343.949 608.447 344.348 608.468 343.434
C 612.47 342.891 616.931 343.22 620.966 343.375
C 620.225 348.894 620.811 354.932 620.813 360.505
C 620.813 363.631 620.231 367.458 620.904 370.495
C 622.267 369.785 623.295 368.251 624.522 367.305
C 627.235 365.214 630.533 363.789 633.939 363.378
C 637.598 362.936 641.428 363.039 644.995 364.025
C 659.602 368.06 665.938 384.394 662.864 398.245
C 660.297 409.808 650.704 418.451 638.736 418.893
C 634.301 419.057 629.967 418.193 626.115 415.948
C 624.639 415.087 623.44 413.981 622.184 412.843
C 621.957 412.637 620.949 411.452 620.845 411.432
C 620.643 411.391 620.682 411.811 620.601 412.001
C 620.684 413.741 621.113 415.944 620.665 417.646
C 616.797 417.263 612.541 417.856 608.631 417.846
C 608.809 412.242 608.488 406.608 608.464 401
C 608.412 389.003 608.436 377.005 608.431 365.007
C 608.428 358.355 607.691 351.233 608.44 344.632 Z
M 620.907 387.083
C 619.659 393.677 621.412 401.285 627.187 405.24
C 636.298 411.478 649.208 406.174 651.208 395.416
C 652.347 389.295 651.029 382.298 645.999 378.192
C 637.027 370.87 623.083 375.585 620.907 387.083 Z"
opacity="1" fill="rgb(253,252,254)" fill-rule="evenodd" />
<path d="
M 669.961 389.123
C 670.355 387.081 670.406 385.045 670.936 383.014
C 671.998 378.947 674.323 375.053 677.067 371.91
C 687.149 360.36 706.73 360.286 716.594 372.069
C 722.289 378.872 723.174 387.093 722.703 395.625
C 709.279 395.94 695.804 395.267 682.363 395.59
C 683.376 405.252 693.832 409.298 702.279 407.274
C 706.146 406.348 708.699 404.244 712.05 402.358
C 712.937 402.264 713.845 403.083 714.629 403.493
C 716.641 404.546 718.72 405.603 720.492 407.028
C 719.902 408.823 718.157 410.297 716.836 411.577
C 711.949 416.312 705.459 418.634 698.742 418.885
C 682.102 419.505 668.339 406.076 669.961 389.123 Z
M 682.971 385.075
C 682.759 385.848 682.829 385.48 682.74 386.175
C 686.606 385.727 690.61 385.939 694.498 385.938
C 699.72 385.935 705.201 385.786 710.392 386.319
C 710.374 384.954 709.884 383.745 709.475 382.47
C 708.96 380.864 707.891 379.489 706.723 378.29
C 699.418 370.796 685.355 374.994 682.971 385.075 Z"
opacity="1" fill="rgb(254,253,254)" fill-rule="evenodd" />

</svg>